<?xml version="1.0" encoding="UTF-8" standalone="no"?>
<svg
   xmlns:dc="http://purl.org/dc/elements/1.1/"
   xmlns:cc="http://creativecommons.org/ns#"
   xmlns:rdf="http://www.w3.org/1999/02/22-rdf-syntax-ns#"
   xmlns:svg="http://www.w3.org/2000/svg"
   xmlns="http://www.w3.org/2000/svg"
   xmlns:sodipodi="http://sodipodi.sourceforge.net/DTD/sodipodi-0.dtd"
   xmlns:inkscape="http://www.inkscape.org/namespaces/inkscape"
   height="485.15058"
   version="1.1"
   width="492.148107"
   id="svg2"
   inkscape:version="0.91 r13725"
   sodipodi:docname="device.svg">
  <metadata
     id="metadata100">
    <rdf:RDF>
      <cc:Work
         rdf:about="">
        <dc:format>image/svg+xml</dc:format>
        <dc:type
           rdf:resource="http://purl.org/dc/dcmitype/StillImage" />
      </cc:Work>
    </rdf:RDF>
  </metadata>
  <sodipodi:namedview
     pagecolor="#ffffff"
     bordercolor="#666666"
     borderopacity="1"
     objecttolerance="10"
     gridtolerance="10"
     guidetolerance="10"
     inkscape:pageopacity="0"
     inkscape:pageshadow="2"
     inkscape:window-width="1920"
     inkscape:window-height="1137"
     id="namedview98"
     showgrid="false"
     inkscape:zoom="1.376"
     inkscape:cx="319.59134"
     inkscape:cy="164.55491"
     inkscape:window-x="1912"
     inkscape:window-y="-8"
     inkscape:window-maximized="1"
     inkscape:current-layer="layer2"
     showguides="false" />
  <defs
     id="defs4" />
  <g
     inkscape:groupmode="layer"
     id="layer2"
     inkscape:label="Device">
    <polygon
       data-channels="119"
       id="electrode0"
       points="102.9,264.7 81.68,264.7 81.68,286.5 102.9,286.5 "
       style="fill:#0000ff"
       transform="translate(0,3.7304687e-6)" />
    <polygon
       data-channels="118"
       id="electrode1"
       points="81.44,264.4 103.1,264.4 103.1,242.7 81.44,242.7 "
       style="fill:#0000ff"
       transform="translate(0,3.7304687e-6)" />
    <polygon
       data-channels="114"
       id="electrode2"
       points="124.8,286.4 124.8,264.7 103.7,264.7 103.7,286.4 "
       style="fill:#0000ff"
       transform="translate(0,3.7304687e-6)" />
    <polygon
       data-channels="67"
       id="electrode3"
       points="367.1,307.1 368.3,308.3 387.5,308.3 388.7,307.1 388.7,297.5 388.7,287.9 387.5,286.7 368.3,286.7 367.1,287.9 367.1,297.5 "
       style="fill:#0000ff"
       transform="translate(0,3.7304687e-6)" />
    <polygon
       data-channels="102"
       id="electrode4"
       points="190.8,286.4 190.8,264.7 169.6,264.7 169.6,286.4 "
       style="fill:#0000ff"
       transform="translate(0,3.7304687e-6)" />
    <polygon
       data-channels="105"
       id="electrode5"
       points="146.8,264.7 125.6,264.7 125.6,286.5 146.8,286.5 "
       style="fill:#0000ff"
       transform="translate(0,3.7304687e-6)" />
    <polygon
       data-channels="113"
       id="electrode6"
       points="103.4,264.4 125.1,264.4 125.1,242.7 103.4,242.7 "
       style="fill:#0000ff"
       transform="translate(0,3.7304687e-6)" />
    <polygon
       data-channels="111"
       id="electrode7"
       points="125.4,264.4 147.1,264.4 147.1,242.7 125.4,242.7 "
       style="fill:#0000ff"
       transform="translate(0,3.7304687e-6)" />
    <polygon
       data-channels="82"
       id="electrode8"
       points="279.2,307.3 280.4,308.5 299.6,308.5 300.9,307.3 300.9,297.6 300.9,288 299.6,286.8 280.4,286.8 279.2,288 279.2,297.6 "
       style="fill:#0000ff"
       transform="translate(0,3.7304687e-6)" />
    <polygon
       data-channels="97"
       id="electrode9"
       points="212.7,264.7 191.5,264.7 191.5,286.5 212.7,286.5 "
       style="fill:#0000ff"
       transform="translate(0,3.7304687e-6)" />
    <polygon
       data-channels="90"
       id="electrode10"
       points="256.9,242.7 235.2,242.7 235.2,264.4 256.9,264.4 "
       style="fill:#0000ff"
       transform="translate(0,3.7304687e-6)" />
    <polygon
       data-channels="81"
       id="electrode11"
       points="279.4,286.5 300.6,286.5 300.6,264.7 279.4,264.7 "
       style="fill:#0000ff"
       transform="translate(0,3.7304687e-6)" />
    <polygon
       data-channels="74"
       id="electrode12"
       points="344.8,242.7 323.1,242.7 323.1,264.4 344.8,264.4 "
       style="fill:#0000ff"
       transform="translate(0,3.7304687e-6)" />
    <polygon
       data-channels="56"
       id="electrode13"
       points="389.3,220.5 410.5,220.5 410.5,198.6 389.3,198.6 "
       style="fill:#0000ff"
       transform="translate(0,3.7304687e-6)" />
    <polygon
       data-channels="48"
       id="electrode14"
       points="366.8,220.8 345.1,220.8 345.1,242.4 366.8,242.4 "
       style="fill:#0000ff"
       transform="translate(0,3.7304687e-6)" />
    <polygon
       data-channels="41"
       id="electrode15"
       points="301.4,198.8 301.4,220.5 322.6,220.5 322.6,198.8 "
       style="fill:#0000ff"
       transform="translate(0,3.7304687e-6)" />
    <polygon
       data-channels="45"
       id="electrode16"
       points="344.8,220.8 323.1,220.8 323.1,242.4 344.8,242.4 "
       style="fill:#0000ff"
       transform="translate(0,3.7304687e-6)" />
    <polygon
       data-channels="54"
       id="electrode17"
       points="388.7,220.8 367.1,220.8 367.1,242.4 388.7,242.4 "
       style="fill:#0000ff"
       transform="translate(0,3.7304687e-6)" />
    <polygon
       data-channels="46"
       id="electrode18"
       points="345.3,220.5 366.5,220.5 366.5,198.6 345.3,198.6 "
       style="fill:#0000ff"
       transform="translate(0,3.7304687e-6)" />
    <polygon
       data-channels="42"
       id="electrode19"
       points="322.8,220.8 301.1,220.8 301.1,242.4 322.8,242.4 "
       style="fill:#0000ff"
       transform="translate(0,3.7304687e-6)" />
    <polygon
       data-channels="38"
       id="electrode20"
       points="279.4,220.5 300.6,220.5 300.6,198.6 279.4,198.6 "
       style="fill:#0000ff"
       transform="translate(0,3.7304687e-6)" />
    <polygon
       data-channels="44"
       id="electrode21"
       points="323.4,220.5 344.6,220.5 344.6,198.6 323.4,198.6 "
       style="fill:#0000ff"
       transform="translate(0,3.7304687e-6)" />
    <polygon
       data-channels="40"
       id="electrode22"
       points="300.9,220.8 279.2,220.8 279.2,242.4 300.9,242.4 "
       style="fill:#0000ff"
       transform="translate(0,3.7304687e-6)" />
    <polygon
       data-channels="10"
       id="electrode23"
       points="125.1,176.5 125.1,154.8 125.1,133.2 103.4,133.2 103.4,154.8 103.4,176.5 "
       style="fill:#0000ff"
       transform="translate(0,3.7304687e-6)" />
    <polygon
       data-channels="9"
       id="electrode24"
       points="146.8,13.88 133.1,0 95.37,0 81.68,13.88 81.68,160.4 103.1,160.4 103.1,154.8 103.1,133.2 103.1,132.9 125.4,132.9 125.4,154.8 125.4,160.4 146.8,160.4 "
       style="fill:#0000ff"
       transform="translate(0,3.7304687e-6)" />
    <polygon
       data-channels="50"
       id="electrode25"
       points="388.7,176.5 388.7,154.8 388.7,133.2 367.1,133.2 367.1,154.8 367.1,176.5 "
       style="fill:#0000ff"
       transform="translate(0,3.7304687e-6)" />
    <polygon
       data-channels="49"
       id="electrode26"
       points="410.5,13.88 396.8,0 359,0 345.3,13.88 345.3,160.4 366.8,160.4 366.8,154.8 366.8,133.2 366.8,132.9 389,132.9 389,154.8 389,160.4 410.5,160.4 "
       style="fill:#0000ff"
       transform="translate(0,3.7304687e-6)" />
    <polygon
       data-channels="58"
       id="electrode27"
       points="411,237 421.8,237 421.8,198.6 411.2,198.6 411.2,220.5 411,220.8 "
       style="fill:#0000ff"
       transform="translate(0,3.7304687e-6)" />
    <polygon
       data-channels="2"
       id="electrode28"
       points="80.9,198.6 70.3,198.6 70.3,237 81.14,237 81.14,220.8 80.9,220.5 "
       style="fill:#0000ff"
       transform="translate(0,3.7304687e-6)" />
    <polygon
       data-channels="20"
       id="electrode29"
       points="213,176.5 213,154.8 213,133.2 191.3,133.2 191.3,154.8 191.3,176.5 "
       style="fill:#0000ff"
       transform="translate(0,3.7304687e-6)" />
    <polygon
       data-channels="26"
       id="electrode30"
       points="234.7,13.88 221,0 183.3,0 169.6,13.88 169.6,160.4 191,160.4 191,154.8 191,133.2 191,132.9 213.3,132.9 213.3,154.8 213.3,160.4 234.7,160.4 "
       style="fill:#0000ff"
       transform="translate(0,3.7304687e-6)" />
    <polygon
       data-channels="36"
       id="electrode31"
       points="300.9,176.5 300.9,154.8 300.9,133.2 279.2,133.2 279.2,154.8 279.2,176.5 "
       style="fill:#0000ff"
       transform="translate(0,3.7304687e-6)" />
    <polygon
       data-channels="34"
       id="electrode32"
       points="322.6,13.88 308.9,0 271.1,0 257.5,13.88 257.5,160.4 278.9,160.4 278.9,154.8 278.9,133.2 278.9,132.9 301.1,132.9 301.1,154.8 301.1,160.4 322.6,160.4 "
       style="fill:#0000ff"
       transform="translate(0,3.7304687e-6)" />
    <polygon
       data-channels="86"
       id="electrode33"
       points="278.9,242.7 257.2,242.7 257.2,264.4 278.9,264.4 "
       style="fill:#0000ff"
       transform="translate(0,3.7304687e-6)" />
    <polygon
       data-channels="75"
       id="electrode34"
       points="323.4,286.5 344.6,286.5 344.6,264.7 323.4,264.7 "
       style="fill:#0000ff"
       transform="translate(0,3.7304687e-6)" />
    <polygon
       data-channels="85"
       id="electrode35"
       points="278.9,330.3 278.9,324.8 257.5,324.8 257.5,471.3 271.1,485.2 308.9,485.2 322.6,471.3 322.6,324.8 301.1,324.8 301.1,330.3 301.1,352.3 278.9,352.3 278.9,352 "
       style="fill:#0000ff"
       transform="translate(0,3.7304687e-6)" />
    <polygon
       data-channels="83"
       id="electrode36"
       points="279.2,352 300.9,352 300.9,330.3 300.9,308.6 279.2,308.6 279.2,330.3 "
       style="fill:#0000ff"
       transform="translate(0,3.7304687e-6)" />
    <polygon
       data-channels="115"
       id="electrode37"
       points="123.9,286.7 104.6,286.7 103.4,287.9 103.4,297.5 103.4,307.1 104.6,308.3 123.9,308.3 125.1,307.1 125.1,297.5 125.1,287.9 "
       style="fill:#0000ff"
       transform="translate(0,3.7304687e-6)" />
    <polygon
       data-channels="98"
       id="electrode38"
       points="211.7,286.8 192.5,286.8 191.3,288 191.3,297.6 191.3,307.3 192.5,308.5 211.7,308.5 213,307.3 213,297.6 213,288 "
       style="fill:#0000ff"
       transform="translate(0,3.7304687e-6)" />
    <polygon
       data-channels="91"
       id="electrode39"
       points="235.2,264.7 235.2,286.4 256.7,286.4 256.7,264.7 "
       style="fill:#0000ff"
       transform="translate(0,3.7304687e-6)" />
    <polygon
       data-channels="95"
       id="electrode40"
       points="213.5,264.7 213.5,286.4 234.9,286.4 234.9,264.7 "
       style="fill:#0000ff"
       transform="translate(0,3.7304687e-6)" />
    <polygon
       data-channels="70"
       id="electrode41"
       points="366.8,330.3 366.8,324.8 345.3,324.8 345.3,471.3 359,485.2 396.8,485.2 410.5,471.3 410.5,324.8 389,324.8 389,330.3 389,352.3 366.8,352.3 366.8,352 "
       style="fill:#0000ff"
       transform="translate(0,3.7304687e-6)" />
    <polygon
       data-channels="69"
       id="electrode42"
       points="367.1,352 388.7,352 388.7,330.3 388.7,308.6 367.1,308.6 367.1,330.3 "
       style="fill:#0000ff"
       transform="translate(0,3.7304687e-6)" />
    <polygon
       data-channels="117"
       id="electrode43"
       points="81.14,248.1 70.3,248.1 70.3,286.5 80.9,286.5 80.9,264.7 81.14,264.4 "
       style="fill:#0000ff"
       transform="translate(0,3.7304687e-6)" />
    <polygon
       data-channels="61"
       id="electrode44"
       points="411.2,286.5 421.8,286.5 421.8,248.1 411,248.1 411,264.4 411.2,264.7 "
       style="fill:#0000ff"
       transform="translate(0,3.7304687e-6)" />
    <polygon
       data-channels="57"
       id="electrode45"
       points="410.7,220.8 389,220.8 389,242.4 410.7,242.4 "
       style="fill:#0000ff"
       transform="translate(0,3.7304687e-6)" />
    <polygon
       data-channels="53"
       id="electrode46"
       points="367.3,198.8 367.3,220.5 388.5,220.5 388.5,198.8 "
       style="fill:#0000ff"
       transform="translate(0,3.7304687e-6)" />
    <polygon
       data-channels="18"
       id="electrode47"
       points="169.3,242.4 191,242.4 191,220.8 169.3,220.8 "
       style="fill:#0000ff"
       transform="translate(0,3.7304687e-6)" />
    <polygon
       data-channels="16"
       id="electrode48"
       points="191.3,242.4 213,242.4 213,220.8 191.3,220.8 "
       style="fill:#0000ff"
       transform="translate(0,3.7304687e-6)" />
    <polygon
       data-channels="12"
       id="electrode49"
       points="168.8,198.6 147.6,198.6 147.6,220.5 168.8,220.5 "
       style="fill:#0000ff"
       transform="translate(0,3.7304687e-6)" />
    <polygon
       data-channels="13"
       id="electrode50"
       points="147.3,242.4 169,242.4 169,220.8 147.3,220.8 "
       style="fill:#0000ff"
       transform="translate(0,3.7304687e-6)" />
    <polygon
       data-channels="17"
       id="electrode51"
       points="169.6,198.8 169.6,220.5 190.8,220.5 190.8,198.8 "
       style="fill:#0000ff"
       transform="translate(0,3.7304687e-6)" />
    <polygon
       data-channels="14"
       id="electrode52"
       points="146.8,198.6 125.6,198.6 125.6,220.5 146.8,220.5 "
       style="fill:#0000ff"
       transform="translate(0,3.7304687e-6)" />
    <polygon
       data-channels="6"
       id="electrode53"
       points="103.4,242.4 125.1,242.4 125.1,220.8 103.4,220.8 "
       style="fill:#0000ff"
       transform="translate(0,3.7304687e-6)" />
    <polygon
       data-channels="8"
       id="electrode54"
       points="125.4,242.4 147.1,242.4 147.1,220.8 125.4,220.8 "
       style="fill:#0000ff"
       transform="translate(0,3.7304687e-6)" />
    <polygon
       data-channels="87"
       id="electrode55"
       points="257.5,286.5 278.6,286.5 278.6,264.7 257.5,264.7 "
       style="fill:#0000ff"
       transform="translate(0,3.7304687e-6)" />
    <polygon
       data-channels="79"
       id="electrode56"
       points="300.9,242.7 279.2,242.7 279.2,264.4 300.9,264.4 "
       style="fill:#0000ff"
       transform="translate(0,3.7304687e-6)" />
    <polygon
       data-channels="30"
       id="electrode57"
       points="70.01,237 70.01,198.6 65.13,193.8 65.13,90.53 51.44,76.66 13.69,76.66 0,76.66 0,237 "
       style="fill:#0000ff"
       transform="translate(0,3.7304687e-6)" />
    <polygon
       data-channels="30"
       id="electrode58"
       points="492.1,237 492.1,76.66 478.5,76.66 440.7,76.66 427,90.53 427,193.8 422.1,198.6 422.1,237 "
       style="fill:#0000ff"
       transform="translate(0,3.7304687e-6)" />
    <polygon
       data-channels="65"
       id="electrode59"
       points="388.7,242.7 367.1,242.7 367.1,264.4 388.7,264.4 "
       style="fill:#0000ff"
       transform="translate(0,3.7304687e-6)" />
    <polygon
       data-channels="73"
       id="electrode60"
       points="345.3,286.5 366.5,286.5 366.5,264.7 345.3,264.7 "
       style="fill:#0000ff"
       transform="translate(0,3.7304687e-6)" />
    <polygon
       data-channels="63"
       id="electrode61"
       points="389.3,286.5 410.5,286.5 410.5,264.7 389.3,264.7 "
       style="fill:#0000ff"
       transform="translate(0,3.7304687e-6)" />
    <polygon
       data-channels="71"
       id="electrode62"
       points="366.8,242.7 345.1,242.7 345.1,264.4 366.8,264.4 "
       style="fill:#0000ff"
       transform="translate(0,3.7304687e-6)" />
    <polygon
       data-channels="66"
       id="electrode63"
       points="388.5,286.4 388.5,264.7 367.3,264.7 367.3,286.4 "
       style="fill:#0000ff"
       transform="translate(0,3.7304687e-6)" />
    <polygon
       data-channels="62"
       id="electrode64"
       points="410.7,242.7 389,242.7 389,264.4 410.7,264.4 "
       style="fill:#0000ff"
       transform="translate(0,3.7304687e-6)" />
    <polygon
       data-channels="103"
       id="electrode65"
       points="191.3,264.4 213,264.4 213,242.7 191.3,242.7 "
       style="fill:#0000ff"
       transform="translate(0,3.7304687e-6)" />
    <polygon
       data-channels="101"
       id="electrode66"
       points="169.3,264.4 191,264.4 191,242.7 169.3,242.7 "
       style="fill:#0000ff"
       transform="translate(0,3.7304687e-6)" />
    <polygon
       data-channels="106"
       id="electrode67"
       points="147.3,264.4 169,264.4 169,242.7 147.3,242.7 "
       style="fill:#0000ff"
       transform="translate(0,3.7304687e-6)" />
    <polygon
       data-channels="107"
       id="electrode68"
       points="168.8,264.7 147.6,264.7 147.6,286.5 168.8,286.5 "
       style="fill:#0000ff"
       transform="translate(0,3.7304687e-6)" />
    <polygon
       data-channels="32"
       id="electrode69"
       points="257.5,220.5 278.6,220.5 278.6,198.6 257.5,198.6 "
       style="fill:#0000ff"
       transform="translate(0,3.7304687e-6)" />
    <polygon
       data-channels="33"
       id="electrode70"
       points="278.9,220.8 257.2,220.8 257.2,242.4 278.9,242.4 "
       style="fill:#0000ff"
       transform="translate(0,3.7304687e-6)" />
    <polygon
       data-channels="29"
       id="electrode71"
       points="256.9,220.8 235.2,220.8 235.2,242.4 256.9,242.4 "
       style="fill:#0000ff"
       transform="translate(0,3.7304687e-6)" />
    <polygon
       data-channels="25"
       id="electrode72"
       points="234.9,220.8 213.3,220.8 213.3,242.4 234.9,242.4 "
       style="fill:#0000ff"
       transform="translate(0,3.7304687e-6)" />
    <polygon
       data-channels="89"
       id="electrode73"
       points="422.1,248.1 422.1,286.5 427,291.4 427,394.6 440.7,408.5 478.5,408.5 492.1,408.5 492.1,248.1 "
       style="fill:#0000ff"
       transform="translate(0,3.7304687e-6)" />
    <polygon
       data-channels="89"
       id="electrode74"
       points="0,248.1 0,408.5 13.69,408.5 51.44,408.5 65.13,394.6 65.13,291.4 70.01,286.5 70.01,248.1 "
       style="fill:#0000ff"
       transform="translate(0,3.7304687e-6)" />
    <polygon
       data-channels="109"
       id="electrode75"
       points="103.4,352 125.1,352 125.1,330.3 125.1,308.6 103.4,308.6 103.4,330.3 "
       style="fill:#0000ff"
       transform="translate(0,3.7304687e-6)" />
    <polygon
       data-channels="110"
       id="electrode76"
       points="103.1,330.3 103.1,324.8 81.68,324.8 81.68,471.3 95.37,485.2 133.1,485.2 146.8,471.3 146.8,324.8 125.4,324.8 125.4,330.3 125.4,352.3 103.1,352.3 103.1,352 "
       style="fill:#0000ff"
       transform="translate(0,3.7304687e-6)" />
    <polygon
       data-channels="99"
       id="electrode77"
       points="191.3,352 213,352 213,330.3 213,308.6 191.3,308.6 191.3,330.3 "
       style="fill:#0000ff"
       transform="translate(0,3.7304687e-6)" />
    <polygon
       data-channels="93"
       id="electrode78"
       points="191,330.3 191,324.8 169.6,324.8 169.6,471.3 183.3,485.2 221,485.2 234.7,471.3 234.7,324.8 213.3,324.8 213.3,330.3 213.3,352.3 191,352.3 191,352 "
       style="fill:#0000ff"
       transform="translate(0,3.7304687e-6)" />
    <polygon
       data-channels="94"
       id="electrode79"
       points="234.9,242.7 213.3,242.7 213.3,264.4 234.9,264.4 "
       style="fill:#0000ff"
       transform="translate(0,3.7304687e-6)" />
    <polygon
       data-channels="77"
       id="electrode80"
       points="322.8,242.7 301.1,242.7 301.1,264.4 322.8,264.4 "
       style="fill:#0000ff"
       transform="translate(0,3.7304687e-6)" />
    <polygon
       data-channels="78"
       id="electrode81"
       points="322.6,286.4 322.6,264.7 301.4,264.7 301.4,286.4 "
       style="fill:#0000ff"
       transform="translate(0,3.7304687e-6)" />
    <polygon
       data-channels="28"
       id="electrode82"
       points="256.7,220.5 256.7,198.8 235.2,198.8 235.2,220.5 "
       style="fill:#0000ff"
       transform="translate(0,3.7304687e-6)" />
    <polygon
       data-channels="24"
       id="electrode83"
       points="234.9,220.5 234.9,198.8 213.5,198.8 213.5,220.5 "
       style="fill:#0000ff"
       transform="translate(0,3.7304687e-6)" />
    <polygon
       data-channels="22"
       id="electrode84"
       points="212.7,198.6 191.5,198.6 191.5,220.5 212.7,220.5 "
       style="fill:#0000ff"
       transform="translate(0,3.7304687e-6)" />
    <polygon
       data-channels="37"
       id="electrode85"
       points="280.4,198.3 299.6,198.3 300.9,197.1 300.9,187.5 300.9,177.9 299.6,176.7 280.4,176.7 279.2,177.9 279.2,187.5 279.2,197.1 "
       style="fill:#0000ff"
       transform="translate(0,3.7304687e-6)" />
    <polygon
       data-channels="52"
       id="electrode86"
       points="368.3,198.5 387.5,198.5 388.7,197.3 388.7,187.6 388.7,178 387.5,176.8 368.3,176.8 367.1,178 367.1,187.6 367.1,197.3 "
       style="fill:#0000ff"
       transform="translate(0,3.7304687e-6)" />
    <polygon
       data-channels="5"
       id="electrode87"
       points="103.7,198.8 103.7,220.5 124.8,220.5 124.8,198.8 "
       style="fill:#0000ff"
       transform="translate(0,3.7304687e-6)" />
    <polygon
       data-channels="1"
       id="electrode88"
       points="81.44,242.4 103.1,242.4 103.1,220.8 81.44,220.8 "
       style="fill:#0000ff"
       transform="translate(0,3.7304687e-6)" />
    <polygon
       data-channels="0"
       id="electrode89"
       points="102.9,198.6 81.68,198.6 81.68,220.5 102.9,220.5 "
       style="fill:#0000ff"
       transform="translate(0,3.7304687e-6)" />
    <polygon
       data-channels="4"
       id="electrode90"
       points="125.1,178 123.9,176.8 104.6,176.8 103.4,178 103.4,187.6 103.4,197.3 104.6,198.5 123.9,198.5 125.1,197.3 125.1,187.6 "
       style="fill:#0000ff"
       transform="translate(0,3.7304687e-6)" />
    <polygon
       data-channels="21"
       id="electrode91"
       points="213,177.9 211.7,176.7 192.5,176.7 191.3,177.9 191.3,187.5 191.3,197.1 192.5,198.3 211.7,198.3 213,197.1 213,187.5 "
       style="fill:#0000ff"
       transform="translate(0,3.7304687e-6)" />
  </g>
</svg>
