<?xml version="1.0" encoding="UTF-8" standalone="no"?>
<svg
   xmlns:dc="http://purl.org/dc/elements/1.1/"
   xmlns:cc="http://creativecommons.org/ns#"
   xmlns:rdf="http://www.w3.org/1999/02/22-rdf-syntax-ns#"
   xmlns:svg="http://www.w3.org/2000/svg"
   xmlns="http://www.w3.org/2000/svg"
   xmlns:sodipodi="http://sodipodi.sourceforge.net/DTD/sodipodi-0.dtd"
   xmlns:inkscape="http://www.inkscape.org/namespaces/inkscape"
   height="485.15058"
   version="1.1"
   width="492.148107"
   id="svg2"
   inkscape:version="0.91 r13725"
   sodipodi:docname="device.svg">
  <metadata
     id="metadata100">
    <rdf:RDF>
      <cc:Work
         rdf:about="">
        <dc:format>image/svg+xml</dc:format>
        <dc:type
           rdf:resource="http://purl.org/dc/dcmitype/StillImage" />
      </cc:Work>
    </rdf:RDF>
  </metadata>
  <sodipodi:namedview
     pagecolor="#ffffff"
     bordercolor="#666666"
     borderopacity="1"
     objecttolerance="10"
     gridtolerance="10"
     guidetolerance="10"
     inkscape:pageopacity="0"
     inkscape:pageshadow="2"
     inkscape:window-width="1920"
     inkscape:window-height="1137"
     id="namedview98"
     showgrid="false"
     inkscape:zoom="2.7517593"
     inkscape:cx="231.40416"
     inkscape:cy="253.54817"
     inkscape:window-x="1912"
     inkscape:window-y="-8"
     inkscape:window-maximized="1"
     inkscape:current-layer="svg2" />
  <defs
     id="defs4" />
  <polygon
     data-channels="119"
     id="electrode0"
     points="81.679949,264.69306 81.679949,286.51788 102.87004,286.51788 102.87004,264.69306 "
     transform="matrix(0.40862,0,0,0.40862,145.52327,143.45418)"
     style="fill:#0000ff" />
  <polygon
     data-channels="118"
     id="electrode1"
     points="103.11417,264.40011 103.11417,242.72177 81.435824,242.72177 81.435824,264.40011 "
     transform="matrix(0.40862,0,0,0.40862,145.52327,143.45418)"
     style="fill:#0000ff" />
  <polygon
     data-channels="114"
     id="electrode2"
     points="124.84134,264.69306 103.65125,264.69306 103.65125,286.37141 124.84134,286.37141 "
     transform="matrix(0.40862,0,0,0.40862,145.52327,143.45418)"
     style="fill:#0000ff" />
  <polygon
     data-channels="67"
     id="electrode3"
     points="388.74099,287.89109 387.51426,286.66436 368.28938,286.66436 367.06265,287.89109 367.06265,297.50353 367.06265,307.11597 368.28938,308.3427 387.51426,308.3427 388.74099,307.11597 388.74099,297.50353 "
     transform="matrix(0.40862,0,0,0.40862,145.52327,143.45418)"
     style="fill:#0000ff" />
  <polygon
     data-channels="102"
     id="electrode4"
     points="190.75522,264.69306 169.56513,264.69306 169.56513,286.37141 190.75522,286.37141 "
     transform="matrix(0.40862,0,0,0.40862,145.52327,143.45418)"
     style="fill:#0000ff" />
  <polygon
     data-channels="105"
     id="electrode5"
     points="125.62254,264.69306 125.62254,286.51788 146.81263,286.51788 146.81263,264.69306 "
     transform="matrix(0.40862,0,0,0.40862,145.52327,143.45418)"
     style="fill:#0000ff" />
  <polygon
     data-channels="113"
     id="electrode6"
     points="125.08546,264.40011 125.08546,242.72177 103.40712,242.72177 103.40712,264.40011 "
     transform="matrix(0.40862,0,0,0.40862,145.52327,143.45418)"
     style="fill:#0000ff" />
  <polygon
     data-channels="111"
     id="electrode7"
     points="147.05676,264.40011 147.05676,242.72177 125.37841,242.72177 125.37841,264.40011 "
     transform="matrix(0.40862,0,0,0.40862,145.52327,143.45418)"
     style="fill:#0000ff" />
  <polygon
     data-channels="82"
     id="electrode8"
     points="300.85582,288.03756 299.62908,286.81083 280.4042,286.81083 279.17747,288.03756 279.17747,297.65 279.17747,307.26244 280.4042,308.48918 299.62908,308.48918 300.85582,307.26244 300.85582,297.65 "
     transform="matrix(0.40862,0,0,0.40862,145.52327,143.45418)"
     style="fill:#0000ff" />
  <polygon
     data-channels="97"
     id="electrode9"
     points="191.53642,264.69306 191.53642,286.51788 212.72651,286.51788 212.72651,264.69306 "
     transform="matrix(0.40862,0,0,0.40862,145.52327,143.45418)"
     style="fill:#0000ff" />
  <polygon
     data-channels="90"
     id="electrode10"
     points="235.23488,242.72177 235.23488,264.40011 256.91323,264.40011 256.91323,242.72177 "
     transform="matrix(0.40862,0,0,0.40862,145.52327,143.45418)"
     style="fill:#0000ff" />
  <polygon
     data-channels="81"
     id="electrode11"
     points="300.61169,286.51788 300.61169,264.69306 279.4216,264.69306 279.4216,286.51788 "
     transform="matrix(0.40862,0,0,0.40862,145.52327,143.45418)"
     style="fill:#0000ff" />
  <polygon
     data-channels="74"
     id="electrode12"
     points="323.12006,242.72177 323.12006,264.40011 344.7984,264.40011 344.7984,242.72177 "
     transform="matrix(0.40862,0,0,0.40862,145.52327,143.45418)"
     style="fill:#0000ff" />
  <polygon
     data-channels="56"
     id="electrode13"
     points="410.46816,220.45753 410.46816,198.63271 389.27807,198.63271 389.27807,220.45753 "
     transform="matrix(0.40862,0,0,0.40862,145.52327,143.45418)"
     style="fill:#0000ff" />
  <polygon
     data-channels="48"
     id="electrode14"
     points="345.09135,220.75047 345.09135,242.42882 366.7697,242.42882 366.7697,220.75047 "
     transform="matrix(0.40862,0,0,0.40862,145.52327,143.45418)"
     style="fill:#0000ff" />
  <polygon
     data-channels="41"
     id="electrode15"
     points="301.39289,220.45753 322.58298,220.45753 322.58298,198.77918 301.39289,198.77918 "
     transform="matrix(0.40862,0,0,0.40862,145.52327,143.45418)"
     style="fill:#0000ff" />
  <polygon
     data-channels="45"
     id="electrode16"
     points="323.12006,220.75047 323.12006,242.42882 344.7984,242.42882 344.7984,220.75047 "
     transform="matrix(0.40862,0,0,0.40862,145.52327,143.45418)"
     style="fill:#0000ff" />
  <polygon
     data-channels="54"
     id="electrode17"
     points="367.06265,220.75047 367.06265,242.42882 388.74099,242.42882 388.74099,220.75047 "
     transform="matrix(0.40862,0,0,0.40862,145.52327,143.45418)"
     style="fill:#0000ff" />
  <polygon
     data-channels="46"
     id="electrode18"
     points="366.52557,220.45753 366.52557,198.63271 345.33548,198.63271 345.33548,220.45753 "
     transform="matrix(0.40862,0,0,0.40862,145.52327,143.45418)"
     style="fill:#0000ff" />
  <polygon
     data-channels="42"
     id="electrode19"
     points="301.14877,220.75047 301.14877,242.42882 322.82711,242.42882 322.82711,220.75047 "
     transform="matrix(0.40862,0,0,0.40862,145.52327,143.45418)"
     style="fill:#0000ff" />
  <polygon
     data-channels="38"
     id="electrode20"
     points="300.61169,220.45753 300.61169,198.63271 279.4216,198.63271 279.4216,220.45753 "
     transform="matrix(0.40862,0,0,0.40862,145.52327,143.45418)"
     style="fill:#0000ff" />
  <polygon
     data-channels="44"
     id="electrode21"
     points="344.55428,220.45753 344.55428,198.63271 323.36419,198.63271 323.36419,220.45753 "
     transform="matrix(0.40862,0,0,0.40862,145.52327,143.45418)"
     style="fill:#0000ff" />
  <polygon
     data-channels="40"
     id="electrode22"
     points="279.17747,220.75047 279.17747,242.42882 300.85582,242.42882 300.85582,220.75047 "
     transform="matrix(0.40862,0,0,0.40862,145.52327,143.45418)"
     style="fill:#0000ff" />
  <polygon
     data-channels="10"
     id="electrode23"
     points="103.40712,133.15825 103.40712,154.83659 103.40712,176.51494 125.08546,176.51494 125.08546,154.83659 125.08546,133.15825 "
     transform="matrix(0.40862,0,0,0.40862,145.52327,143.45418)"
     style="fill:#0000ff" />
  <polygon
     data-channels="9"
     id="electrode24"
     points="125.37841,160.35383 146.81263,160.35383 146.81263,13.87854 133.11915,0 95.373431,0 81.679949,13.87854 81.679949,160.35383 103.11417,160.35383 103.11417,154.83659 103.11417,133.15825 103.11417,132.8653 125.37841,132.8653 125.37841,154.83659 "
     transform="matrix(0.40862,0,0,0.40862,145.52327,143.45418)"
     style="fill:#0000ff" />
  <polygon
     data-channels="50"
     id="electrode25"
     points="367.06265,133.15825 367.06265,154.83659 367.06265,176.51494 388.74099,176.51494 388.74099,154.83659 388.74099,133.15825 "
     transform="matrix(0.40862,0,0,0.40862,145.52327,143.45418)"
     style="fill:#0000ff" />
  <polygon
     data-channels="49"
     id="electrode26"
     points="389.03394,160.35383 410.46816,160.35383 410.46816,13.87854 396.77468,0 359.02896,0 345.33548,13.87854 345.33548,160.35383 366.7697,160.35383 366.7697,154.83659 366.7697,133.15825 366.7697,132.8653 389.03394,132.8653 389.03394,154.83659 "
     transform="matrix(0.40862,0,0,0.40862,145.52327,143.45418)"
     style="fill:#0000ff" />
  <polygon
     data-channels="58"
     id="electrode27"
     points="411.24936,198.63271 411.24936,220.45753 411.00524,220.75047 411.00524,237.00923 421.84441,237.00923 421.84441,198.63271 "
     transform="matrix(0.40862,0,0,0.40862,145.52327,143.45418)"
     style="fill:#0000ff" />
  <polygon
     data-channels="2"
     id="electrode28"
     points="81.142873,237.00923 81.142873,220.75047 80.898748,220.45753 80.898748,198.63271 70.303702,198.63271 70.303702,237.00923 "
     transform="matrix(0.40862,0,0,0.40862,145.52327,143.45418)"
     style="fill:#0000ff" />
  <polygon
     data-channels="20"
     id="electrode29"
     points="191.2923,133.15825 191.2923,154.83659 191.2923,176.51494 212.97064,176.51494 212.97064,154.83659 212.97064,133.15825 "
     transform="matrix(0.40862,0,0,0.40862,145.52327,143.45418)"
     style="fill:#0000ff" />
  <polygon
     data-channels="26"
     id="electrode30"
     points="213.26359,160.35383 234.69781,160.35383 234.69781,13.87854 221.00433,0 183.25861,0 169.56513,13.87854 169.56513,160.35383 190.99935,160.35383 190.99935,154.83659 190.99935,133.15825 190.99935,132.8653 213.26359,132.8653 213.26359,154.83659 "
     transform="matrix(0.40862,0,0,0.40862,145.52327,143.45418)"
     style="fill:#0000ff" />
  <polygon
     data-channels="36"
     id="electrode31"
     points="279.17747,133.15825 279.17747,154.83659 279.17747,176.51494 300.85582,176.51494 300.85582,154.83659 300.85582,133.15825 "
     transform="matrix(0.40862,0,0,0.40862,145.52327,143.45418)"
     style="fill:#0000ff" />
  <polygon
     data-channels="34"
     id="electrode32"
     points="301.14877,160.35383 322.58298,160.35383 322.58298,13.87854 308.8895,0 271.14378,0 257.4503,13.87854 257.4503,160.35383 278.88452,160.35383 278.88452,154.83659 278.88452,133.15825 278.88452,132.8653 301.14877,132.8653 301.14877,154.83659 "
     transform="matrix(0.40862,0,0,0.40862,145.52327,143.45418)"
     style="fill:#0000ff" />
  <polygon
     data-channels="86"
     id="electrode33"
     points="257.20618,242.72177 257.20618,264.40011 278.88452,264.40011 278.88452,242.72177 "
     transform="matrix(0.40862,0,0,0.40862,145.52327,143.45418)"
     style="fill:#0000ff" />
  <polygon
     data-channels="75"
     id="electrode34"
     points="344.55428,286.51788 344.55428,264.69306 323.36419,264.69306 323.36419,286.51788 "
     transform="matrix(0.40862,0,0,0.40862,145.52327,143.45418)"
     style="fill:#0000ff" />
  <polygon
     data-channels="85"
     id="electrode35"
     points="278.88452,352.28529 278.88452,351.99234 278.88452,330.314 278.88452,324.79676 257.4503,324.79676 257.4503,471.27205 271.14378,485.15058 308.8895,485.15058 322.58298,471.27205 322.58298,324.79676 301.14877,324.79676 301.14877,330.314 301.14877,352.28529 "
     transform="matrix(0.40862,0,0,0.40862,145.52327,143.45418)"
     style="fill:#0000ff" />
  <polygon
     data-channels="83"
     id="electrode36"
     points="300.85582,308.63565 279.17747,308.63565 279.17747,330.314 279.17747,351.99234 300.85582,351.99234 300.85582,330.314 "
     transform="matrix(0.40862,0,0,0.40862,145.52327,143.45418)"
     style="fill:#0000ff" />
  <polygon
     data-channels="115"
     id="electrode37"
     points="104.63385,308.3427 123.85873,308.3427 125.08546,307.11597 125.08546,297.50353 125.08546,287.89109 123.85873,286.66436 104.63385,286.66436 103.40712,287.89109 103.40712,297.50353 103.40712,307.11597 "
     transform="matrix(0.40862,0,0,0.40862,145.52327,143.45418)"
     style="fill:#0000ff" />
  <polygon
     data-channels="98"
     id="electrode38"
     points="192.51903,308.48918 211.74391,308.48918 212.97064,307.26244 212.97064,297.65 212.97064,288.03756 211.74391,286.81083 192.51903,286.81083 191.2923,288.03756 191.2923,297.65 191.2923,307.26244 "
     transform="matrix(0.40862,0,0,0.40862,145.52327,143.45418)"
     style="fill:#0000ff" />
  <polygon
     data-channels="91"
     id="electrode39"
     points="235.23488,286.37141 256.6691,286.37141 256.6691,264.69306 235.23488,264.69306 "
     transform="matrix(0.40862,0,0,0.40862,145.52327,143.45418)"
     style="fill:#0000ff" />
  <polygon
     data-channels="95"
     id="electrode40"
     points="213.50772,286.37141 234.94193,286.37141 234.94193,264.69306 213.50772,264.69306 "
     transform="matrix(0.40862,0,0,0.40862,145.52327,143.45418)"
     style="fill:#0000ff" />
  <polygon
     data-channels="70"
     id="electrode41"
     points="366.7697,352.28529 366.7697,351.99234 366.7697,330.314 366.7697,324.79676 345.33548,324.79676 345.33548,471.27205 359.02896,485.15058 396.77468,485.15058 410.46816,471.27205 410.46816,324.79676 389.03394,324.79676 389.03394,330.314 389.03394,352.28529 "
     transform="matrix(0.40862,0,0,0.40862,145.52327,143.45418)"
     style="fill:#0000ff" />
  <polygon
     data-channels="69"
     id="electrode42"
     points="388.74099,308.63565 367.06265,308.63565 367.06265,330.314 367.06265,351.99234 388.74099,351.99234 388.74099,330.314 "
     transform="matrix(0.40862,0,0,0.40862,145.52327,143.45418)"
     style="fill:#0000ff" />
  <polygon
     data-channels="117"
     id="electrode43"
     points="80.898748,286.51788 80.898748,264.69306 81.142873,264.40011 81.142873,248.14136 70.303702,248.14136 70.303702,286.51788 "
     transform="matrix(0.40862,0,0,0.40862,145.52327,143.45418)"
     style="fill:#0000ff" />
  <polygon
     data-channels="61"
     id="electrode44"
     points="411.00524,248.14136 411.00524,264.40011 411.24936,264.69306 411.24936,286.51788 421.84441,286.51788 421.84441,248.14136 "
     transform="matrix(0.40862,0,0,0.40862,145.52327,143.45418)"
     style="fill:#0000ff" />
  <polygon
     data-channels="57"
     id="electrode45"
     points="389.03394,220.75047 389.03394,242.42882 410.71229,242.42882 410.71229,220.75047 "
     transform="matrix(0.40862,0,0,0.40862,145.52327,143.45418)"
     style="fill:#0000ff" />
  <polygon
     data-channels="53"
     id="electrode46"
     points="367.30677,220.45753 388.49687,220.45753 388.49687,198.77918 367.30677,198.77918 "
     transform="matrix(0.40862,0,0,0.40862,145.52327,143.45418)"
     style="fill:#0000ff" />
  <polygon
     data-channels="18"
     id="electrode47"
     points="190.99935,242.42882 190.99935,220.75047 169.321,220.75047 169.321,242.42882 "
     transform="matrix(0.40862,0,0,0.40862,145.52327,143.45418)"
     style="fill:#0000ff" />
  <polygon
     data-channels="16"
     id="electrode48"
     points="212.97064,242.42882 212.97064,220.75047 191.2923,220.75047 191.2923,242.42882 "
     transform="matrix(0.40862,0,0,0.40862,145.52327,143.45418)"
     style="fill:#0000ff" />
  <polygon
     data-channels="12"
     id="electrode49"
     points="147.59383,198.63271 147.59383,220.45753 168.78393,220.45753 168.78393,198.63271 "
     transform="matrix(0.40862,0,0,0.40862,145.52327,143.45418)"
     style="fill:#0000ff" />
  <polygon
     data-channels="13"
     id="electrode50"
     points="169.02805,242.42882 169.02805,220.75047 147.34971,220.75047 147.34971,242.42882 "
     transform="matrix(0.40862,0,0,0.40862,145.52327,143.45418)"
     style="fill:#0000ff" />
  <polygon
     data-channels="17"
     id="electrode51"
     points="169.56513,220.45753 190.75522,220.45753 190.75522,198.77918 169.56513,198.77918 "
     transform="matrix(0.40862,0,0,0.40862,145.52327,143.45418)"
     style="fill:#0000ff" />
  <polygon
     data-channels="14"
     id="electrode52"
     points="125.62254,198.63271 125.62254,220.45753 146.81263,220.45753 146.81263,198.63271 "
     transform="matrix(0.40862,0,0,0.40862,145.52327,143.45418)"
     style="fill:#0000ff" />
  <polygon
     data-channels="6"
     id="electrode53"
     points="125.08546,242.42882 125.08546,220.75047 103.40712,220.75047 103.40712,242.42882 "
     transform="matrix(0.40862,0,0,0.40862,145.52327,143.45418)"
     style="fill:#0000ff" />
  <polygon
     data-channels="8"
     id="electrode54"
     points="147.05676,242.42882 147.05676,220.75047 125.37841,220.75047 125.37841,242.42882 "
     transform="matrix(0.40862,0,0,0.40862,145.52327,143.45418)"
     style="fill:#0000ff" />
  <polygon
     data-channels="87"
     id="electrode55"
     points="278.6404,286.51788 278.6404,264.69306 257.4503,264.69306 257.4503,286.51788 "
     transform="matrix(0.40862,0,0,0.40862,145.52327,143.45418)"
     style="fill:#0000ff" />
  <polygon
     data-channels="79"
     id="electrode56"
     points="279.17747,242.72177 279.17747,264.40011 300.85582,264.40011 300.85582,242.72177 "
     transform="matrix(0.40862,0,0,0.40862,145.52327,143.45418)"
     style="fill:#0000ff" />
  <polygon
     data-channels="30"
     id="electrode57"
     points="70.010751,198.63271 65.13268,193.78599 65.13268,90.53394 51.439198,76.65541 13.693481,76.65541 0,76.65541 0,237.00923 70.010751,237.00923 "
     transform="matrix(0.40862,0,0,0.40862,145.52327,143.45418)"
     style="fill:#0000ff" />
  <polygon
     data-channels="30"
     id="electrode58"
     points="492.14811,76.65541 478.45463,76.65541 440.70891,76.65541 427.01543,90.53394 427.01543,193.78599 422.13736,198.63271 422.13736,237.00923 492.14811,237.00923 "
     transform="matrix(0.40862,0,0,0.40862,145.52327,143.45418)"
     style="fill:#0000ff" />
  <polygon
     data-channels="65"
     id="electrode59"
     points="367.06265,242.72177 367.06265,264.40011 388.74099,264.40011 388.74099,242.72177 "
     transform="matrix(0.40862,0,0,0.40862,145.52327,143.45418)"
     style="fill:#0000ff" />
  <polygon
     data-channels="73"
     id="electrode60"
     points="366.52557,286.51788 366.52557,264.69306 345.33548,264.69306 345.33548,286.51788 "
     transform="matrix(0.40862,0,0,0.40862,145.52327,143.45418)"
     style="fill:#0000ff" />
  <polygon
     data-channels="63"
     id="electrode61"
     points="410.46816,286.51788 410.46816,264.69306 389.27807,264.69306 389.27807,286.51788 "
     transform="matrix(0.40862,0,0,0.40862,145.52327,143.45418)"
     style="fill:#0000ff" />
  <polygon
     data-channels="71"
     id="electrode62"
     points="345.09135,242.72177 345.09135,264.40011 366.7697,264.40011 366.7697,242.72177 "
     transform="matrix(0.40862,0,0,0.40862,145.52327,143.45418)"
     style="fill:#0000ff" />
  <polygon
     data-channels="66"
     id="electrode63"
     points="388.49687,264.69306 367.30677,264.69306 367.30677,286.37141 388.49687,286.37141 "
     transform="matrix(0.40862,0,0,0.40862,145.52327,143.45418)"
     style="fill:#0000ff" />
  <polygon
     data-channels="62"
     id="electrode64"
     points="389.03394,242.72177 389.03394,264.40011 410.71229,264.40011 410.71229,242.72177 "
     transform="matrix(0.40862,0,0,0.40862,145.52327,143.45418)"
     style="fill:#0000ff" />
  <polygon
     data-channels="103"
     id="electrode65"
     points="212.97064,264.40011 212.97064,242.72177 191.2923,242.72177 191.2923,264.40011 "
     transform="matrix(0.40862,0,0,0.40862,145.52327,143.45418)"
     style="fill:#0000ff" />
  <polygon
     data-channels="101"
     id="electrode66"
     points="190.99935,264.40011 190.99935,242.72177 169.321,242.72177 169.321,264.40011 "
     transform="matrix(0.40862,0,0,0.40862,145.52327,143.45418)"
     style="fill:#0000ff" />
  <polygon
     data-channels="106"
     id="electrode67"
     points="169.02805,264.40011 169.02805,242.72177 147.34971,242.72177 147.34971,264.40011 "
     transform="matrix(0.40862,0,0,0.40862,145.52327,143.45418)"
     style="fill:#0000ff" />
  <polygon
     data-channels="107"
     id="electrode68"
     points="147.59383,264.69306 147.59383,286.51788 168.78393,286.51788 168.78393,264.69306 "
     transform="matrix(0.40862,0,0,0.40862,145.52327,143.45418)"
     style="fill:#0000ff" />
  <polygon
     data-channels="32"
     id="electrode69"
     points="278.6404,220.45753 278.6404,198.63271 257.4503,198.63271 257.4503,220.45753 "
     transform="matrix(0.40862,0,0,0.40862,145.52327,143.45418)"
     style="fill:#0000ff" />
  <polygon
     data-channels="33"
     id="electrode70"
     points="257.20618,220.75047 257.20618,242.42882 278.88452,242.42882 278.88452,220.75047 "
     transform="matrix(0.40862,0,0,0.40862,145.52327,143.45418)"
     style="fill:#0000ff" />
  <polygon
     data-channels="29"
     id="electrode71"
     points="235.23488,220.75047 235.23488,242.42882 256.91323,242.42882 256.91323,220.75047 "
     transform="matrix(0.40862,0,0,0.40862,145.52327,143.45418)"
     style="fill:#0000ff" />
  <polygon
     data-channels="25"
     id="electrode72"
     points="213.26359,220.75047 213.26359,242.42882 234.94193,242.42882 234.94193,220.75047 "
     transform="matrix(0.40862,0,0,0.40862,145.52327,143.45418)"
     style="fill:#0000ff" />
  <polygon
     data-channels="89"
     id="electrode73"
     points="422.13736,286.51788 427.01543,291.3646 427.01543,394.61665 440.70891,408.49518 478.45463,408.49518 492.14811,408.49518 492.14811,248.14136 422.13736,248.14136 "
     transform="matrix(0.40862,0,0,0.40862,145.52327,143.45418)"
     style="fill:#0000ff" />
  <polygon
     data-channels="89"
     id="electrode74"
     points="0,408.49518 13.693481,408.49518 51.439198,408.49518 65.13268,394.61665 65.13268,291.3646 70.010751,286.51788 70.010751,248.14136 0,248.14136 "
     transform="matrix(0.40862,0,0,0.40862,145.52327,143.45418)"
     style="fill:#0000ff" />
  <polygon
     data-channels="109"
     id="electrode75"
     points="125.08546,308.63565 103.40712,308.63565 103.40712,330.314 103.40712,351.99234 125.08546,351.99234 125.08546,330.314 "
     transform="matrix(0.40862,0,0,0.40862,145.52327,143.45418)"
     style="fill:#0000ff" />
  <polygon
     data-channels="110"
     id="electrode76"
     points="103.11417,352.28529 103.11417,351.99234 103.11417,330.314 103.11417,324.79676 81.679949,324.79676 81.679949,471.27205 95.373431,485.15058 133.11915,485.15058 146.81263,471.27205 146.81263,324.79676 125.37841,324.79676 125.37841,330.314 125.37841,352.28529 "
     transform="matrix(0.40862,0,0,0.40862,145.52327,143.45418)"
     style="fill:#0000ff" />
  <polygon
     data-channels="99"
     id="electrode77"
     points="212.97064,308.63565 191.2923,308.63565 191.2923,330.314 191.2923,351.99234 212.97064,351.99234 212.97064,330.314 "
     transform="matrix(0.40862,0,0,0.40862,145.52327,143.45418)"
     style="fill:#0000ff" />
  <polygon
     data-channels="93"
     id="electrode78"
     points="190.99935,352.28529 190.99935,351.99234 190.99935,330.314 190.99935,324.79676 169.56513,324.79676 169.56513,471.27205 183.25861,485.15058 221.00433,485.15058 234.69781,471.27205 234.69781,324.79676 213.26359,324.79676 213.26359,330.314 213.26359,352.28529 "
     transform="matrix(0.40862,0,0,0.40862,145.52327,143.45418)"
     style="fill:#0000ff" />
  <polygon
     data-channels="94"
     id="electrode79"
     points="213.26359,242.72177 213.26359,264.40011 234.94193,264.40011 234.94193,242.72177 "
     transform="matrix(0.40862,0,0,0.40862,145.52327,143.45418)"
     style="fill:#0000ff" />
  <polygon
     data-channels="77"
     id="electrode80"
     points="301.14877,242.72177 301.14877,264.40011 322.82711,264.40011 322.82711,242.72177 "
     transform="matrix(0.40862,0,0,0.40862,145.52327,143.45418)"
     style="fill:#0000ff" />
  <polygon
     data-channels="78"
     id="electrode81"
     points="322.58298,264.69306 301.39289,264.69306 301.39289,286.37141 322.58298,286.37141 "
     transform="matrix(0.40862,0,0,0.40862,145.52327,143.45418)"
     style="fill:#0000ff" />
  <polygon
     data-channels="28"
     id="electrode82"
     points="256.6691,198.77918 235.23488,198.77918 235.23488,220.45753 256.6691,220.45753 "
     transform="matrix(0.40862,0,0,0.40862,145.52327,143.45418)"
     style="fill:#0000ff" />
  <polygon
     data-channels="24"
     id="electrode83"
     points="234.94193,198.77918 213.50772,198.77918 213.50772,220.45753 234.94193,220.45753 "
     transform="matrix(0.40862,0,0,0.40862,145.52327,143.45418)"
     style="fill:#0000ff" />
  <polygon
     data-channels="22"
     id="electrode84"
     points="191.53642,198.63271 191.53642,220.45753 212.72651,220.45753 212.72651,198.63271 "
     transform="matrix(0.40862,0,0,0.40862,145.52327,143.45418)"
     style="fill:#0000ff" />
  <polygon
     data-channels="37"
     id="electrode85"
     points="299.62908,176.66141 280.4042,176.66141 279.17747,177.88814 279.17747,187.50058 279.17747,197.11302 280.4042,198.33976 299.62908,198.33976 300.85582,197.11302 300.85582,187.50058 300.85582,177.88814 "
     transform="matrix(0.40862,0,0,0.40862,145.52327,143.45418)"
     style="fill:#0000ff" />
  <polygon
     data-channels="52"
     id="electrode86"
     points="387.51426,176.80789 368.28938,176.80789 367.06265,178.03462 367.06265,187.64706 367.06265,197.2595 368.28938,198.48623 387.51426,198.48623 388.74099,197.2595 388.74099,187.64706 388.74099,178.03462 "
     transform="matrix(0.40862,0,0,0.40862,145.52327,143.45418)"
     style="fill:#0000ff" />
  <polygon
     data-channels="5"
     id="electrode87"
     points="103.65125,220.45753 124.84134,220.45753 124.84134,198.77918 103.65125,198.77918 "
     transform="matrix(0.40862,0,0,0.40862,145.52327,143.45418)"
     style="fill:#0000ff" />
  <polygon
     data-channels="1"
     id="electrode88"
     points="103.11417,242.42882 103.11417,220.75047 81.435824,220.75047 81.435824,242.42882 "
     transform="matrix(0.40862,0,0,0.40862,145.52327,143.45418)"
     style="fill:#0000ff" />
  <polygon
     data-channels="0"
     id="electrode89"
     points="81.679949,198.63271 81.679949,220.45753 102.87004,220.45753 102.87004,198.63271 "
     transform="matrix(0.40862,0,0,0.40862,145.52327,143.45418)"
     style="fill:#0000ff" />
  <polygon
     data-channels="4"
     id="electrode90"
     points="103.40712,197.2595 104.63385,198.48623 123.85873,198.48623 125.08546,197.2595 125.08546,187.64706 125.08546,178.03462 123.85873,176.80789 104.63385,176.80789 103.40712,178.03462 103.40712,187.64706 "
     transform="matrix(0.40862,0,0,0.40862,145.52327,143.45418)"
     style="fill:#0000ff" />
  <polygon
     data-channels="21"
     id="electrode91"
     points="191.2923,197.11302 192.51903,198.33976 211.74391,198.33976 212.97064,197.11302 212.97064,187.50058 212.97064,177.88814 211.74391,176.66141 192.51903,176.66141 191.2923,177.88814 191.2923,187.50058 "
     transform="matrix(0.40862,0,0,0.40862,145.52327,143.45418)"
     style="fill:#0000ff" />
</svg>
